<?xml version="1.0" encoding="utf-8"?>
<!-- Generator: Adobe Illustrator 17.0.0, SVG Export Plug-In . SVG Version: 6.00 Build 0)  -->
<!DOCTYPE svg PUBLIC "-//W3C//DTD SVG 1.1//EN" "http://www.w3.org/Graphics/SVG/1.1/DTD/svg11.dtd">
<svg version="1.1" id="图层_1" xmlns="http://www.w3.org/2000/svg" xmlns:xlink="http://www.w3.org/1999/xlink" x="0px" y="0px"
	 width="163.499px" height="36px" viewBox="0 0 163.499 36" enable-background="new 0 0 163.499 36" xml:space="preserve">
<path fill="#CCCCCC" d="M163.499,21.227c0,1.68-1.362,3.041-3.041,3.041h-22.354c-1.68,0-3.041-1.362-3.041-3.041v-6.083
	c0-1.68,1.362-3.041,3.041-3.041h22.354c1.68,0,3.041,1.362,3.041,3.041V21.227z"/>
<path fill="#DA4725" d="M18.708,33.268c0.414-0.754,1.153-1.522,1.183-3.68c0.03-2.158-1.626-3.636-1.744-3.695
	c-0.118-0.059-1.345-0.99-3.592-0.916c-2.247,0.074-3.474,0.281-4.183,0.37c-0.709,0.089-2.188,0.281-2.986,0.281
	c-0.798,0-1.936-0.251-2.439-0.503c-0.503-0.251-1.7-1.12-2.202-2.082c-0.503-0.963-0.724-2.042-0.724-2.042l6.356-2.853
	c0,0,0.754-0.384,1.064-0.769c0.31-0.384,0.473-0.754,0.473-0.754s0.029-1.153,0.325-1.907s0.798-1.094,0.798-1.094l3.089-2.69
	c0,0-1.473-1.589-1.744-2.927C11.778,5.03,12.053,2.35,12.053,2.35s1.294,2.865,1.596,3.387c0.466,0.806,1.186,1.574,1.186,1.574
	s0.017-0.744,0.517-1.966c0.189-0.463,1.293-2.266,1.293-2.266s0.434,1.453,1.054,2.207c0.455,0.552,0.759,0.688,1.554,1.052
	c0.932,0.427,1.417,1.21,1.92,2.077c0.097,0.167,0.281,0.517,0.281,0.517s2.501,0.315,5.177,1.38
	c2.676,1.064,5.262,2.986,5.262,2.986l-2.871,0.562c0,0,2.72,0.621,4.733,2.291c1.686,1.399,2.332,2.154,2.347,2.171
	c0.001-0.09,0.003-0.179,0.003-0.269C36.106,8.083,28.023,0,18.053,0S0,8.083,0,18.053C0,27.362,7.046,35.025,16.096,36
	C16.117,35.981,18.297,34.018,18.708,33.268z"/>
<g>
	<polygon fill="#666666" points="57.774,26.665 54.858,15.615 51.353,15.615 48.426,26.855 45.377,15.615 42.005,15.615 
		46.111,30.271 50.529,30.271 53.011,20.701 53.055,20.701 55.659,30.271 59.988,30.271 63.727,15.615 60.489,15.615 	"/>
	<rect x="65.649" y="15.615" fill="#666666" width="3.461" height="2.782"/>
	<rect x="65.649" y="19.443" fill="#666666" width="3.461" height="10.828"/>
	<rect x="71.242" y="15.615" fill="#666666" width="3.461" height="14.656"/>
	<path fill="#666666" d="M85.509,19.857c-0.339-0.256-0.756-0.414-1.213-0.414h-6.091c-1.116,0-2.022,0.905-2.022,2.022v6.784
		c0,1.116,0.905,2.022,2.022,2.022h6.091c0.457,0,0.874-0.158,1.213-0.414v0.414h3.483V15.615h-3.483V19.857z M85.104,29.125h-5.125
		c-0.223,0-0.405-0.181-0.405-0.404v-7.684c0-0.224,0.181-0.405,0.405-0.405h5.125c0.223,0,0.405,0.181,0.405,0.405v7.684
		C85.509,28.944,85.328,29.125,85.104,29.125z"/>
	<path fill="#666666" d="M99.363,19.857c-0.339-0.256-0.756-0.414-1.213-0.414h-6.091c-1.116,0-2.022,0.905-2.022,2.022v6.784
		c0,1.116,0.905,2.022,2.022,2.022h6.091c0.457,0,0.874-0.158,1.213-0.414v0.414h3.483V15.615h-3.483V19.857z M98.959,29.125h-5.125
		c-0.223,0-0.404-0.181-0.404-0.404v-7.684c0-0.224,0.181-0.405,0.404-0.405h5.125c0.223,0,0.404,0.181,0.404,0.405v7.684
		C99.363,28.944,99.182,29.125,98.959,29.125z"/>
	<path fill="#666666" d="M127.183,19.039v0.818c-0.339-0.256-0.756-0.413-1.213-0.413h-6.091c-1.116,0-2.022,0.905-2.022,2.022
		v6.784c0,1.116,0.905,2.022,2.022,2.022h6.091c0.457,0,0.874-0.158,1.213-0.414v0.414v2.491c0,0.223-0.181,0.404-0.404,0.404
		h-8.922l0.493,1.19h10.295c1.117,0,2.022-0.905,2.022-2.022v-2.063v-1.248v-9.984H127.183z M126.779,29.125h-5.125
		c-0.223,0-0.404-0.181-0.404-0.404v-7.684c0-0.224,0.181-0.405,0.404-0.405h5.125c0.223,0,0.404,0.181,0.404,0.405v7.514v0.17
		C127.183,28.944,127.002,29.125,126.779,29.125z"/>
	<path fill="#666666" d="M114.522,19.443h-8.675c-1.116,0-2.022,0.905-2.022,2.022v6.784c0,1.116,0.905,2.022,2.022,2.022h8.675
		c1.117,0,2.022-0.905,2.022-2.022v-6.784C116.543,20.348,115.638,19.443,114.522,19.443z M113.151,28.699
		c0,0.223-0.181,0.404-0.404,0.404h-5.125c-0.224,0-0.404-0.181-0.404-0.404v-7.684c0-0.224,0.181-0.404,0.404-0.404h5.125
		c0.223,0,0.404,0.181,0.404,0.404V28.699z"/>
</g>
<g>
	<path fill="#FFFFFF" d="M139.022,14.463h0.492h2.717c0.622,0,1.124,0.16,1.505,0.479c0.381,0.32,0.571,0.741,0.571,1.264
		c0,0.606-0.225,1.079-0.675,1.42c-0.103,0.079-0.214,0.147-0.333,0.204c0.242,0.086,0.452,0.194,0.631,0.323
		c0.477,0.348,0.715,0.829,0.715,1.445c0,0.679-0.233,1.209-0.698,1.592c-0.465,0.382-1.112,0.574-1.939,0.574h-2.493h-0.492V14.463
		z M140.011,17.572h1.763c0.536,0,0.929-0.097,1.177-0.291s0.372-0.499,0.372-0.916c0-0.364-0.114-0.632-0.343-0.802
		c-0.228-0.171-0.588-0.256-1.078-0.256h-1.892V17.572z M140.011,20.92h2.012c0.566,0,0.981-0.109,1.244-0.328
		c0.263-0.219,0.395-0.563,0.395-1.033c0-0.411-0.137-0.711-0.412-0.901c-0.275-0.19-0.707-0.286-1.296-0.286h-1.942V20.92z"/>
	<path fill="#FFFFFF" d="M148.081,21.908c-0.752,0-1.343-0.238-1.773-0.715c-0.43-0.477-0.646-1.136-0.646-1.977
		c0-0.894,0.228-1.605,0.683-2.133c0.455-0.528,1.067-0.792,1.835-0.792c0.695,0,1.257,0.258,1.684,0.775
		c0.427,0.517,0.641,1.195,0.641,2.036l-0.011,0.318h-3.881c0.036,0.53,0.157,0.934,0.363,1.212
		c0.251,0.338,0.648,0.507,1.191,0.507c0.341,0,0.638-0.096,0.893-0.288c0.255-0.192,0.411-0.437,0.467-0.735h0.884
		c-0.132,0.583-0.397,1.027-0.795,1.334S148.707,21.908,148.081,21.908z M149.573,18.699c-0.026-0.493-0.149-0.877-0.368-1.152
		c-0.242-0.305-0.596-0.457-1.063-0.457c-0.47,0-0.846,0.175-1.127,0.526c-0.222,0.275-0.356,0.636-0.402,1.083H149.573z"/>
	<path fill="#FFFFFF" d="M153.729,21.759c-0.305,0.046-0.526,0.07-0.666,0.07c-0.391,0-0.666-0.086-0.827-0.258
		c-0.161-0.172-0.241-0.469-0.241-0.889V17.18h-0.735v-0.73h0.735v-1.49h0.894v1.49h0.839v0.73h-0.839v3.502
		c0,0.119,0.047,0.214,0.142,0.283c0.094,0.07,0.221,0.104,0.38,0.104h0.318V21.759z"/>
	<path fill="#FFFFFF" d="M156.206,21.908c-0.52,0-0.932-0.139-1.237-0.417s-0.457-0.654-0.457-1.127c0-0.477,0.143-0.856,0.43-1.137
		c0.286-0.281,0.704-0.457,1.254-0.526l1.217-0.154c0.099-0.01,0.194-0.026,0.283-0.05c0.116-0.03,0.205-0.089,0.268-0.179
		c0.063-0.089,0.094-0.202,0.094-0.338v-0.045c0-0.285-0.108-0.507-0.323-0.668s-0.515-0.241-0.899-0.241
		c-0.368,0-0.655,0.085-0.862,0.256s-0.332,0.425-0.375,0.762h-0.824c0.043-0.583,0.248-1.021,0.616-1.314s0.894-0.44,1.579-0.44
		c0.646,0,1.137,0.14,1.475,0.42s0.507,0.688,0.507,1.224v2.92c0,0.089,0.027,0.161,0.082,0.216
		c0.055,0.055,0.128,0.082,0.221,0.082c0.026,0,0.065-0.003,0.117-0.01c0.051-0.007,0.107-0.017,0.166-0.03v0.646
		c-0.086,0.033-0.177,0.06-0.273,0.079s-0.177,0.03-0.243,0.03c-0.338,0-0.583-0.093-0.735-0.278
		c-0.099-0.123-0.171-0.296-0.214-0.522c-0.066,0.083-0.142,0.162-0.228,0.238C157.398,21.708,156.852,21.908,156.206,21.908z
		 M158.059,19.658v-0.576c-0.166,0.079-0.349,0.134-0.551,0.164l-0.82,0.119c-0.43,0.06-0.745,0.16-0.944,0.3
		c-0.199,0.141-0.298,0.332-0.298,0.574c0,0.298,0.081,0.527,0.243,0.688c0.162,0.161,0.392,0.241,0.69,0.241
		c0.47,0,0.868-0.127,1.192-0.382c0.222-0.179,0.369-0.381,0.442-0.606c0.013-0.043,0.023-0.111,0.03-0.204
		C158.054,19.88,158.059,19.774,158.059,19.658z"/>
</g>
</svg>
